<?xml version="1.0" encoding="UTF-8"?>
<svg xmlns="http://www.w3.org/2000/svg" viewBox="0 0 122.87 122.89">
  <defs>
    <style>
      .cls-1 {
        fill: #fff;
      }
    </style>
  </defs>
  <g id="Layer_1" data-name="Layer 1">
    <path d="m61.44,11.52c-27.57,0-49.91,22.38-49.89,49.94,0,9.4,2.65,18.59,7.65,26.54l-4.8,20.48,20.48-4.8c23.33,14.69,54.15,7.69,68.84-15.64s7.69-54.15-15.64-68.84c-7.97-5.03-17.21-7.69-26.64-7.68h0Zm-28.51,97.82l-8.25,1.92,1.31,5.61,6.07-1.41c4.6,2.51,9.51,4.41,14.6,5.66l1.38-5.59c-5.3-1.32-10.38-3.42-15.07-6.23l-.04.04h0Zm-26.88-12.48l5.61,1.3,1.92-8.25c-2.8-4.7-4.89-9.8-6.19-15.11l-5.59,1.38c1.25,5.09,3.16,10,5.66,14.6l-1.41,6.08h0Zm13.52,15.56l-11.89,2.78,2.77-11.89-5.61-1.31-2.77,11.89c-.73,3.1,1.2,6.2,4.29,6.92.86.2,1.76.2,2.63,0l11.88-2.73-1.3-5.66h0ZM53.1,6.38c5.53-.83,11.15-.83,16.68,0l.86-5.69c-6.1-.92-12.31-.92-18.41,0l.87,5.69h0Zm60.95,23.3l-4.93,2.96c2.89,4.79,5.04,9.99,6.38,15.42l5.59-1.38c-1.48-5.99-3.85-11.72-7.04-17h0Zm-97.43-1.26c3.32-4.5,7.3-8.48,11.8-11.8l-3.46-4.64c-4.95,3.65-9.33,8.03-12.98,12.98l4.64,3.46h0Zm77.84-11.8c4.5,3.32,8.48,7.3,11.8,11.8l4.64-3.46c-3.65-4.95-8.03-9.33-12.98-12.98l-3.46,4.64h0Zm11.8,77.85c-3.32,4.5-7.3,8.47-11.8,11.79l3.42,4.64c4.96-3.65,9.35-8.03,13.02-12.98l-4.64-3.45h0Zm-36.48,22.03c-5.53.83-11.15.83-16.68,0l-.86,5.7c6.1.92,12.31.92,18.41,0l-.87-5.7h0Zm51.3-40.31l-5.59-1.38c-1.34,5.44-3.49,10.64-6.38,15.44l4.93,2.97c3.2-5.29,5.57-11.04,7.04-17.03h0Zm-3.96-14.75c0,2.79-.21,5.58-.63,8.34l5.69.87c.92-6.1.92-12.31,0-18.41l-5.69.86c.42,2.76.63,5.55.63,8.34h0Zm-23.92,52.61l-2.96-4.93c-4.79,2.89-9.99,5.04-15.42,6.38l1.38,5.59c5.99-1.48,11.72-3.85,17-7.04h0ZM5.76,61.44c0-2.79.21-5.58.62-8.34l-5.69-.86c-.92,6.1-.92,12.31,0,18.41l5.69-.87c-.41-2.76-.62-5.55-.62-8.34h0Zm3.07-31.76c-3.19,5.29-5.56,11.02-7.04,17.01l5.59,1.38c1.34-5.44,3.49-10.64,6.38-15.44l-4.93-2.95h0ZM76.18,1.79l-1.38,5.59c5.44,1.34,10.64,3.49,15.44,6.38l2.97-4.93c-5.28-3.19-11.03-5.56-17.03-7.04h0Zm-29.49,0l1.38,5.59c-5.44,1.34-10.64,3.49-15.44,6.38l-2.96-4.93c5.3-3.19,11.03-5.56,17.02-7.04h0Z"/>
  </g>
  <g id="Layer_2" data-name="Layer 2">
    <path class="cls-1" d="m87.17,42.24c-.15-1.59-.64-3.04-1.59-4.3-.84-1.11-1.91-1.91-2.93-2.81-.51-.44-1.85-1.65-2.02-2.33-.2-.82.11-1.67.81-1.94,1.06-.38,2.83-.37,3.85-.3.87.07,1.77-.25,1.8-.63.03-.38-.48-.94-1.17-1.11-.54-.14-1.37-.34-1.87-.7-.89-.64-1.79-1.82-3.03-2.08-1.76-.37-2.99.34-3.56,1.96-.91,2.32-.32,5.29,1.6,7.47.86.98,1.87,1.82,2.83,2.7.71.65,1.34,1.37,1.94,2.17,1.61,2.15-.09,6.09-.5,6.54-1.42,1.58-2.66,1.87-5.11,1.76-2.41-.11-8.66-3.57-11.97-3.68-8.19-.27-13.87,3.78-15.79,4.83-2.88,1.58-6.97,1.68-7.1,1.72-1.85.15-5.69.31-7.6,1.01-2.68.8-4.13,2.11-5.11,5.05-.3,1.27-.36,2.42.07,3.12.94,1.52,3.47,2.79,4.62,3.49.59.36,1.76-.09,1.99-.26,1.29-.93,2.42-1.67,3.94-1.9.32-.05,2.47-.46,3.55.39.79.62,1.46.99,2.35,1.42,1.62.79,5.2,1.79,5.27,1.8.48.14,1.1.4,1.1.86,0,.65-5.68,5.75-6,5.87-1.43.63-2.26,1.63-2.52,3.08-.08.47-.28.96-.52,1.35-.92,1.43-5.01,7.65-6.09,9.35-.52.8-1.05,1.2-1.78,1.32-1.06.18-1.85.21-2.3,1.01-.28.52-.1,1.52.08,2.18.21.74-.36,1.67-.41,1.78-.51,1.06-.72,2.08-.64,3.1.03.42.05,1.39.69,1.41.64.04.81-.41.89-.57.09-.2.45-1.02.55-1.22.41-.82,2-2.6,2.17-2.81.57-.67,9.03-13.15,9.03-13.15.47-.65.95-1.32,1.73-1.65,1.09-.45,1.82-1.39,2.03-2.62.05-.27,3.43-3.04,4.86-4.21.52-.43,3.71-1.79,3.76-1.78,0,.03-2.91,4.72-3.81,7.21-.14.4-.38,1.76-.12,2.45.41,1.06,1.28,1.52,2.27,1.21.3-.1.58-.26.84-.42.12-.07.24-.14.36-.2.12-.06.23-.13.35-.19.27-.15.53-.3.8-.39.97-.34,1.95-.67,2.94-1l1.99-.66c1.39-.46,2.77-.92,4.16-1.38.3-.1.6-.22.98-.21.21,0,.44.09.52.43,0,.02.16,1.03.74,1.44.3.21.93.37,1.4.35.41-.02.94.11,1.21.36l.35.32c.25.23.57.35.78.42.22.06.63.06.86-.2.25-.29.16-.76.13-.91-.05-.2-.15-.35-.23-.49l-.21-.35c-.2-.34-.4-.69-.61-1.03-.58-.95-1.16-1.89-1.75-2.84-.62-.98-1.57-1.37-2.83-1.16-.48.08-11.06,3.6-11.14,3.62.57-1.11,3.96-6.14,4.91-6.77.7-.44,1-.87,2.28-1.11,2.5-.45,7.91-1.79,9.25-2.84,2.61-2.03,2.83-6.64,2.78-7.57-.05-.92.23-1.56.98-1.98.37-.21,4.4-2.59,6.37-6.11,1.18-2.06,1.79-4.26,1.56-6.7Z"/>
  </g>
</svg>